<svg width="210" height="191" viewBox="0 0 210 191" fill="none" xmlns="http://www.w3.org/2000/svg">
<path d="M69 151C69.9813 151 68.4137 151.315 67.7777 151.778C64.1999 154.38 52.1677 149.551 48.7777 148.889C39.6304 147.101 36.4521 144.452 30.4444 138.444C27.5646 135.565 24.3743 133.829 21.1111 131.444C17.4315 128.756 14.097 123.077 12 119C10.1892 115.479 10.2716 111.543 8.49997 108C6.45351 103.907 3.85222 97.6137 5.49997 93C6.33671 90.6571 4.67837 91.091 3.49997 89.3889C1.35723 86.2938 0.673139 82.4381 1.22219 78.7778C1.85108 74.5852 3.90799 70.6976 7.22219 68C8.4089 67.0341 12 64.4114 12 67.5C12 68.9889 10.3544 69.7378 10.0555 67.9444C9.40728 64.055 12.3356 60.2411 14 57C16.1856 52.7437 17.942 51.2914 18.7777 46.5556C20.1211 38.9431 23.3885 33.5203 31.4444 32.0556C33.2736 31.723 34.0054 33.2711 35.5 31.4444C38.4029 27.8964 41.3155 24.1481 45.6666 22.2222C50.7393 19.977 56.1156 20.8527 60.5 17.5C66.3641 13.0157 74.5057 4.17411 82.7777 7.44444C85.4048 8.48303 86.2566 10.6393 89.4444 9.77778C94.4263 8.43133 98.6465 4.59986 103.389 2.61111C110.155 -0.226338 116.094 3.31391 123 3C126.421 2.84452 129.556 1 133 1C136.962 1 141.072 3.22266 144.5 5C151.362 8.55807 156.226 8.54237 163.667 9.05556C171.291 9.58135 177.683 12.4128 184.778 14.7778C190.12 16.5585 191.027 22.3325 195 25.9444C199.727 30.2418 206 29.8369 206 37C206 45.8533 214.204 66.8515 203.444 73C197.933 76.1493 204.249 80.236 206 83.2222C207.814 86.3163 196.319 101.889 193.556 101.889C192.492 101.889 193.91 99.1111 194.5 99.1111C196.537 99.1111 195.611 106.249 195.444 107.056C194.598 111.167 193.057 115.832 190 118.889C187.652 121.237 184.267 118.415 182 117.222C177.794 115.009 172.994 124.268 171.778 128.222C170.528 132.283 166.8 137.17 162.444 138C158.991 138.658 157.339 138.992 154.056 137.556C152.431 136.845 151.336 136.83 150.222 138.222C148.126 140.843 148.403 141 151.5 141C156.249 141 154.443 140.371 152 142" stroke="white" stroke-width="2" stroke-linecap="round"/>
<path d="M69 152C65.9539 152.338 65.3348 154.976 68.5556 154.056C69.7605 153.711 69.9418 154.941 71 155C74.9466 155.219 79.7999 154.124 83.2222 152.222C89.0141 149.005 95.5015 150.642 101.444 148.944C103.759 148.283 105.036 149.171 107.778 148.222C111.657 146.879 109.807 146.72 113 148.222C113.856 148.625 118.171 146.537 119 145.5C119.72 144.6 115.459 148 116.611 148C118.755 148 120.535 151.534 121.222 153.222C123.26 158.224 129.52 165.229 133.5 169C135.05 170.469 146.933 192.622 150.778 188.778C151.365 188.191 151 186.153 151 185.389C151 181.327 151.629 177.904 152.444 173.944C153.995 166.412 155 159.234 155 151.556C155 148.568 154 146.018 154 143C154 137.448 152.405 144.974 152 147" stroke="white" stroke-width="2" stroke-linecap="round"/>
</svg>
