<svg width="261" height="221" viewBox="0 0 261 221" fill="none" xmlns="http://www.w3.org/2000/svg">
<path d="M259.992 1C258.45 1.09074 257.583 1.40882 256.492 2.5C250.188 8.80444 242.78 14.2563 235.992 20" stroke="white" stroke-width="2" stroke-linecap="round"/>
<path d="M215.992 35C213.052 40.2273 201.864 43.9119 196.992 46" stroke="white" stroke-width="2" stroke-linecap="round"/>
<path d="M177.992 40C170.191 39.2199 170.586 26.7953 170.714 20.8889C170.8 16.9485 175.486 16.8793 177.992 15" stroke="white" stroke-width="2" stroke-linecap="round"/>
<path d="M192.992 13C199.406 13.6413 198.774 20.8854 199.992 26" stroke="white" stroke-width="2" stroke-linecap="round"/>
<path d="M194.992 56C189.109 62.5364 182.749 68.1149 175.992 74" stroke="white" stroke-width="2" stroke-linecap="round"/>
<path d="M161.992 85C161.029 89.8184 148.895 95.7938 145.992 98" stroke="white" stroke-width="2" stroke-linecap="round"/>
<path d="M129.992 113C121.174 112.02 112.941 123.877 106.992 129" stroke="white" stroke-width="2" stroke-linecap="round"/>
<path d="M89.2734 146.174C86.7149 148.448 83.8934 150.858 81.04 152.761" stroke="white" stroke-width="3" stroke-linecap="round"/>
<path d="M62.9268 172.521C55.3357 172.521 50.0209 182.401 43.1667 182.401" stroke="black" stroke-width="3" stroke-linecap="round"/>
<path d="M28.3467 202.161C23.665 202.161 25.199 204.037 23.0408 206.735C20.7265 209.628 19.0205 209.537 15.9967 211.217C11.4774 213.728 7.48279 218.627 2 218.627" stroke="black" stroke-width="3" stroke-linecap="round"/>
<path d="M140.32 95.1273C132.995 95.1273 114.299 97.4257 110.68 90.1873" stroke="white" stroke-width="3" stroke-linecap="round"/>
<path d="M107.387 78.6606C107.695 76.1945 117.691 66.1894 119.828 65.5787C128.28 63.1638 128.793 76.2099 128.793 81.9539" stroke="white" stroke-width="3" stroke-linecap="round"/>
</svg>
