<svg width="161" height="136" viewBox="0 0 161 136" fill="none" xmlns="http://www.w3.org/2000/svg">
<path d="M157 4C155.457 4.09074 154.591 4.40882 153.5 5.5C147.196 11.8044 139.788 17.2563 133 23" stroke="white" stroke-width="7" stroke-linecap="round"/>
<path d="M113 38C110.06 43.2273 98.8722 46.9119 94 49" stroke="white" stroke-width="7" stroke-linecap="round"/>
<path d="M75 43C67.199 42.2199 67.5938 29.7953 67.7222 23.8889C67.8079 19.9485 72.4942 19.8793 75 18" stroke="white" stroke-width="7" stroke-linecap="round"/>
<path d="M90 16C96.4135 16.6413 95.7822 23.8854 97 29" stroke="white" stroke-width="7" stroke-linecap="round"/>
<path d="M92 59C86.1173 65.5364 79.7569 71.1149 73 77" stroke="white" stroke-width="7" stroke-linecap="round"/>
<path d="M59 88C58.0363 92.8184 45.9029 98.7938 43 101" stroke="white" stroke-width="7" stroke-linecap="round"/>
<path d="M27 116C18.1814 115.02 9.94927 126.877 4 132" stroke="white" stroke-width="7" stroke-linecap="round"/>
</svg>
