<svg width="413" height="132" viewBox="0 0 413 132" fill="none" xmlns="http://www.w3.org/2000/svg">
<g filter="url(#filter0_d_2038_119)">
<g filter="url(#filter1_d_2038_119)">
<path fill-rule="evenodd" clip-rule="evenodd" d="M35.3427 122.548C35.052 122.838 34.7068 123.069 34.327 123.226C33.9471 123.383 33.54 123.463 33.1289 123.463C32.7179 123.462 32.311 123.38 31.9315 123.222C31.5521 123.064 31.2076 122.833 30.9177 122.541L5.95308 97.5061C5.36712 96.9185 5.03859 96.1221 5.03976 95.2923C5.04094 94.4624 5.37172 93.6671 5.95934 93.0811C6.54696 92.4951 7.34328 92.1666 8.17313 92.1678C9.00298 92.1689 9.79837 92.4997 10.3843 93.0873L30.019 112.784L30.1055 51.5777C30.1114 47.4337 31.7632 43.4617 34.6976 40.5356C37.632 37.6095 41.6086 35.9689 45.7526 35.9748L204.715 35.2862L204.04 1.46262C204.869 1.46379 205.445 1.36782 206.215 1.36781C206.985 1.3678 209.531 0.962616 209.54 1.96261C209.549 2.96261 209.54 2.96262 209.54 3.96261C209.54 4.96261 209.54 4.46262 209.531 5.53623L209.54 40.5356L45.7438 42.2248C43.2574 42.2213 40.8714 43.2056 39.1108 44.9613C37.3501 46.7169 36.359 49.1001 36.3555 51.5865L36.269 112.793L55.9593 93.1518C56.2502 92.8616 56.5955 92.6316 56.9753 92.4749C57.3552 92.3182 57.7622 92.2379 58.1731 92.2384C58.584 92.239 58.9907 92.3205 59.3701 92.4783C59.7495 92.6361 60.0941 92.8671 60.3843 93.158C60.6744 93.449 60.9044 93.7942 61.0611 94.1741C61.2178 94.5539 61.2982 94.9609 61.2976 95.3718C61.297 95.7827 61.2155 96.1895 61.0577 96.5689C60.9 96.9483 60.669 97.2929 60.378 97.583L35.3427 122.548Z" fill="black"/>
<path fill-rule="evenodd" clip-rule="evenodd" d="M35.3427 122.548C35.052 122.838 34.7068 123.069 34.327 123.226C33.9471 123.383 33.54 123.463 33.1289 123.463C32.7179 123.462 32.311 123.38 31.9315 123.222C31.5521 123.064 31.2076 122.833 30.9177 122.541L5.95308 97.5061C5.36712 96.9185 5.03859 96.1221 5.03976 95.2923C5.04094 94.4624 5.37172 93.6671 5.95934 93.0811C6.54696 92.4951 7.34328 92.1666 8.17313 92.1678C9.00298 92.1689 9.79837 92.4997 10.3843 93.0873L30.019 112.784L30.1055 51.5777C30.1114 47.4337 31.7632 43.4617 34.6976 40.5356C37.632 37.6095 41.6086 35.9689 45.7526 35.9748L204.715 35.2862L204.04 1.46262C204.869 1.46379 205.445 1.36782 206.215 1.36781C206.985 1.3678 209.531 0.962616 209.54 1.96261C209.549 2.96261 209.54 2.96262 209.54 3.96261C209.54 4.96261 209.54 4.46262 209.531 5.53623L209.54 40.5356L45.7438 42.2248C43.2574 42.2213 40.8714 43.2056 39.1108 44.9613C37.3501 46.7169 36.359 49.1001 36.3555 51.5865L36.269 112.793L55.9593 93.1518C56.2502 92.8616 56.5955 92.6316 56.9753 92.4749C57.3552 92.3182 57.7622 92.2379 58.1731 92.2384C58.584 92.239 58.9907 92.3205 59.3701 92.4783C59.7495 92.6361 60.0941 92.8671 60.3843 93.158C60.6744 93.449 60.9044 93.7942 61.0611 94.1741C61.2178 94.5539 61.2982 94.9609 61.2976 95.3718C61.297 95.7827 61.2155 96.1895 61.0577 96.5689C60.9 96.9483 60.669 97.2929 60.378 97.583L35.3427 122.548Z" fill="black"/>
<path d="M35.3427 122.548C35.052 122.838 34.7068 123.069 34.327 123.226C33.9471 123.383 33.54 123.463 33.1289 123.463C32.7179 123.462 32.311 123.38 31.9315 123.222C31.5521 123.064 31.2076 122.833 30.9177 122.541L5.95308 97.5061C5.36712 96.9185 5.03859 96.1221 5.03976 95.2923C5.04094 94.4624 5.37172 93.6671 5.95934 93.0811C6.54696 92.4951 7.34328 92.1666 8.17313 92.1678C9.00298 92.1689 9.79837 92.4997 10.3843 93.0873L30.019 112.784L30.1055 51.5777C30.1114 47.4337 31.7632 43.4617 34.6976 40.5356C37.632 37.6095 41.6086 35.9689 45.7526 35.9748L204.715 35.2862L204.04 1.46262C204.869 1.46379 205.445 1.36782 206.215 1.36781C206.985 1.3678 209.531 0.962616 209.54 1.96261C209.549 2.96261 209.54 2.96262 209.54 3.96261C209.54 4.96261 209.54 4.46262 209.531 5.53623L209.54 40.5356L45.7438 42.2248C43.2574 42.2213 40.8714 43.2056 39.1108 44.9613C37.3501 46.7169 36.359 49.1001 36.3555 51.5865L36.269 112.793L55.9593 93.1518C56.2502 92.8616 56.5955 92.6316 56.9753 92.4749C57.3552 92.3182 57.7622 92.2379 58.1731 92.2384C58.584 92.239 58.9907 92.3205 59.3701 92.4783C59.7495 92.6361 60.0941 92.8671 60.3843 93.158C60.6744 93.449 60.9044 93.7942 61.0611 94.1741C61.2178 94.5539 61.2982 94.9609 61.2976 95.3718C61.297 95.7827 61.2155 96.1895 61.0577 96.5689C60.9 96.9483 60.669 97.2929 60.378 97.583L35.3427 122.548Z" stroke="black"/>
</g>
<g filter="url(#filter2_d_2038_119)">
<path fill-rule="evenodd" clip-rule="evenodd" d="M377.252 122.548C377.543 122.838 377.888 123.069 378.268 123.226C378.648 123.383 379.055 123.463 379.466 123.463C379.877 123.462 380.284 123.38 380.664 123.222C381.043 123.064 381.388 122.833 381.677 122.541L406.642 97.5061C407.228 96.9185 407.557 96.1221 407.555 95.2923C407.554 94.4624 407.223 93.6671 406.636 93.0811C406.048 92.4951 405.252 92.1666 404.422 92.1678C403.592 92.1689 402.797 92.4997 402.211 93.0873L382.576 112.784L382.49 51.5777C382.484 47.4337 380.832 43.4617 377.898 40.5356C374.963 37.6095 370.987 35.9689 366.843 35.9748L207.88 35.2862L208.555 1.46262C207.727 1.46379 207.15 1.36782 206.38 1.36781C205.61 1.3678 203.064 0.962616 203.055 1.96261C203.046 2.96261 203.055 2.96262 203.055 3.96261C203.055 4.96261 203.055 4.46262 203.064 5.53623L203.056 40.5356L366.851 42.2248C369.338 42.2213 371.724 43.2056 373.484 44.9613C375.245 46.7169 376.236 49.1001 376.24 51.5865L376.326 112.793L356.636 93.1518C356.345 92.8616 356 92.6316 355.62 92.4749C355.24 92.3182 354.833 92.2379 354.422 92.2384C354.011 92.239 353.604 92.3205 353.225 92.4783C352.846 92.6361 352.501 92.8671 352.211 93.158C351.921 93.449 351.691 93.7942 351.534 94.1741C351.377 94.5539 351.297 94.9609 351.298 95.3718C351.298 95.7827 351.38 96.1895 351.537 96.5689C351.695 96.9483 351.926 97.2929 352.217 97.583L377.252 122.548Z" fill="black"/>
<path fill-rule="evenodd" clip-rule="evenodd" d="M377.252 122.548C377.543 122.838 377.888 123.069 378.268 123.226C378.648 123.383 379.055 123.463 379.466 123.463C379.877 123.462 380.284 123.38 380.664 123.222C381.043 123.064 381.388 122.833 381.677 122.541L406.642 97.5061C407.228 96.9185 407.557 96.1221 407.555 95.2923C407.554 94.4624 407.223 93.6671 406.636 93.0811C406.048 92.4951 405.252 92.1666 404.422 92.1678C403.592 92.1689 402.797 92.4997 402.211 93.0873L382.576 112.784L382.49 51.5777C382.484 47.4337 380.832 43.4617 377.898 40.5356C374.963 37.6095 370.987 35.9689 366.843 35.9748L207.88 35.2862L208.555 1.46262C207.727 1.46379 207.15 1.36782 206.38 1.36781C205.61 1.3678 203.064 0.962616 203.055 1.96261C203.046 2.96261 203.055 2.96262 203.055 3.96261C203.055 4.96261 203.055 4.46262 203.064 5.53623L203.056 40.5356L366.851 42.2248C369.338 42.2213 371.724 43.2056 373.484 44.9613C375.245 46.7169 376.236 49.1001 376.24 51.5865L376.326 112.793L356.636 93.1518C356.345 92.8616 356 92.6316 355.62 92.4749C355.24 92.3182 354.833 92.2379 354.422 92.2384C354.011 92.239 353.604 92.3205 353.225 92.4783C352.846 92.6361 352.501 92.8671 352.211 93.158C351.921 93.449 351.691 93.7942 351.534 94.1741C351.377 94.5539 351.297 94.9609 351.298 95.3718C351.298 95.7827 351.38 96.1895 351.537 96.5689C351.695 96.9483 351.926 97.2929 352.217 97.583L377.252 122.548Z" fill="black"/>
<path d="M377.252 122.548C377.543 122.838 377.888 123.069 378.268 123.226C378.648 123.383 379.055 123.463 379.466 123.463C379.877 123.462 380.284 123.38 380.664 123.222C381.043 123.064 381.388 122.833 381.677 122.541L406.642 97.5061C407.228 96.9185 407.557 96.1221 407.555 95.2923C407.554 94.4624 407.223 93.6671 406.636 93.0811C406.048 92.4951 405.252 92.1666 404.422 92.1678C403.592 92.1689 402.797 92.4997 402.211 93.0873L382.576 112.784L382.49 51.5777C382.484 47.4337 380.832 43.4617 377.898 40.5356C374.963 37.6095 370.987 35.9689 366.843 35.9748L207.88 35.2862L208.555 1.46262C207.727 1.46379 207.15 1.36782 206.38 1.36781C205.61 1.3678 203.064 0.962616 203.055 1.96261C203.046 2.96261 203.055 2.96262 203.055 3.96261C203.055 4.96261 203.055 4.46262 203.064 5.53623L203.056 40.5356L366.851 42.2248C369.338 42.2213 371.724 43.2056 373.484 44.9613C375.245 46.7169 376.236 49.1001 376.24 51.5865L376.326 112.793L356.636 93.1518C356.345 92.8616 356 92.6316 355.62 92.4749C355.24 92.3182 354.833 92.2379 354.422 92.2384C354.011 92.239 353.604 92.3205 353.225 92.4783C352.846 92.6361 352.501 92.8671 352.211 93.158C351.921 93.449 351.691 93.7942 351.534 94.1741C351.377 94.5539 351.297 94.9609 351.298 95.3718C351.298 95.7827 351.38 96.1895 351.537 96.5689C351.695 96.9483 351.926 97.2929 352.217 97.583L377.252 122.548Z" stroke="black"/>
</g>
<g filter="url(#filter3_d_2038_119)">
<path fill-rule="evenodd" clip-rule="evenodd" d="M206.5 33C207.251 33 207.972 33.3311 208.503 33.9205C209.034 34.5098 209.333 35.3092 209.333 36.1427V110.265L227.158 90.4855C227.69 89.8954 228.411 89.5639 229.163 89.5639C229.916 89.5639 230.637 89.8954 231.169 90.4855C231.701 91.0756 232 91.8759 232 92.7105C232 93.545 231.701 94.3454 231.169 94.9355L208.506 120.077C208.243 120.369 207.93 120.602 207.586 120.76C207.242 120.918 206.873 121 206.5 121C206.127 121 205.758 120.918 205.414 120.76C205.07 120.602 204.757 120.369 204.494 120.077L181.831 94.9355C181.299 94.3454 181 93.545 181 92.7105C181 91.8759 181.299 91.0756 181.831 90.4855C182.363 89.8954 183.084 89.5639 183.837 89.5639C184.589 89.5639 185.31 89.8954 185.842 90.4855L203.667 110.265V36.1427C203.667 35.3092 203.966 34.5098 204.497 33.9205C205.028 33.3311 205.749 33 206.5 33Z" fill="black"/>
<path d="M203.167 108.964L186.214 90.1508L186.214 90.1507C185.593 89.4621 184.739 89.0639 183.837 89.0639C182.934 89.0639 182.08 89.4621 181.459 90.1507C180.84 90.8376 180.5 91.7591 180.5 92.7105C180.5 93.6618 180.84 94.5834 181.459 95.2703L204.122 120.411C204.429 120.752 204.797 121.026 205.205 121.214C205.614 121.402 206.054 121.5 206.5 121.5C206.946 121.5 207.386 121.402 207.795 121.214C208.203 121.026 208.571 120.752 208.878 120.411L231.541 95.2703C232.16 94.5834 232.5 93.6618 232.5 92.7105C232.5 91.7591 232.16 90.8376 231.541 90.1507C230.92 89.4621 230.066 89.0639 229.163 89.0639C228.261 89.0639 227.407 89.4621 226.786 90.1507L226.786 90.1508L209.833 108.964V36.1427C209.833 35.1923 209.493 34.2718 208.875 33.5857C208.254 32.8978 207.402 32.5 206.5 32.5C205.598 32.5 204.746 32.8978 204.125 33.5857C203.507 34.2718 203.167 35.1923 203.167 36.1427V108.964Z" stroke="black"/>
</g>
</g>
<defs>
<filter id="filter0_d_2038_119" x="0.539734" y="0.786621" width="411.516" height="131.176" filterUnits="userSpaceOnUse" color-interpolation-filters="sRGB">
<feFlood flood-opacity="0" result="BackgroundImageFix"/>
<feColorMatrix in="SourceAlpha" type="matrix" values="0 0 0 0 0 0 0 0 0 0 0 0 0 0 0 0 0 0 127 0" result="hardAlpha"/>
<feOffset dy="4"/>
<feGaussianBlur stdDeviation="2"/>
<feComposite in2="hardAlpha" operator="out"/>
<feColorMatrix type="matrix" values="0 0 0 0 0 0 0 0 0 0 0 0 0 0 0 0 0 0 0.25 0"/>
<feBlend mode="normal" in2="BackgroundImageFix" result="effect1_dropShadow_2038_119"/>
<feBlend mode="normal" in="SourceGraphic" in2="effect1_dropShadow_2038_119" result="shape"/>
</filter>
<filter id="filter1_d_2038_119" x="0.539734" y="0.786621" width="213.504" height="131.176" filterUnits="userSpaceOnUse" color-interpolation-filters="sRGB">
<feFlood flood-opacity="0" result="BackgroundImageFix"/>
<feColorMatrix in="SourceAlpha" type="matrix" values="0 0 0 0 0 0 0 0 0 0 0 0 0 0 0 0 0 0 127 0" result="hardAlpha"/>
<feOffset dy="4"/>
<feGaussianBlur stdDeviation="2"/>
<feComposite in2="hardAlpha" operator="out"/>
<feColorMatrix type="matrix" values="0 0 0 0 0 0 0 0 0 0 0 0 0 0 0 0 0 0 0.25 0"/>
<feBlend mode="normal" in2="BackgroundImageFix" result="effect1_dropShadow_2038_119"/>
<feBlend mode="normal" in="SourceGraphic" in2="effect1_dropShadow_2038_119" result="shape"/>
</filter>
<filter id="filter2_d_2038_119" x="198.551" y="0.786621" width="213.504" height="131.176" filterUnits="userSpaceOnUse" color-interpolation-filters="sRGB">
<feFlood flood-opacity="0" result="BackgroundImageFix"/>
<feColorMatrix in="SourceAlpha" type="matrix" values="0 0 0 0 0 0 0 0 0 0 0 0 0 0 0 0 0 0 127 0" result="hardAlpha"/>
<feOffset dy="4"/>
<feGaussianBlur stdDeviation="2"/>
<feComposite in2="hardAlpha" operator="out"/>
<feColorMatrix type="matrix" values="0 0 0 0 0 0 0 0 0 0 0 0 0 0 0 0 0 0 0.25 0"/>
<feBlend mode="normal" in2="BackgroundImageFix" result="effect1_dropShadow_2038_119"/>
<feBlend mode="normal" in="SourceGraphic" in2="effect1_dropShadow_2038_119" result="shape"/>
</filter>
<filter id="filter3_d_2038_119" x="176" y="32" width="61" height="98" filterUnits="userSpaceOnUse" color-interpolation-filters="sRGB">
<feFlood flood-opacity="0" result="BackgroundImageFix"/>
<feColorMatrix in="SourceAlpha" type="matrix" values="0 0 0 0 0 0 0 0 0 0 0 0 0 0 0 0 0 0 127 0" result="hardAlpha"/>
<feOffset dy="4"/>
<feGaussianBlur stdDeviation="2"/>
<feComposite in2="hardAlpha" operator="out"/>
<feColorMatrix type="matrix" values="0 0 0 0 0 0 0 0 0 0 0 0 0 0 0 0 0 0 0.25 0"/>
<feBlend mode="normal" in2="BackgroundImageFix" result="effect1_dropShadow_2038_119"/>
<feBlend mode="normal" in="SourceGraphic" in2="effect1_dropShadow_2038_119" result="shape"/>
</filter>
</defs>
</svg>
